<?xml version="1.0" encoding="UTF-8"?>
<svg id="Camada_2" data-name="Camada 2" xmlns="http://www.w3.org/2000/svg" xmlns:xlink="http://www.w3.org/1999/xlink" viewBox="0 0 648.33 99.46">
  <defs>
    <style>
      .cls-1 {
        fill: #0067a6;
      }

      .cls-1, .cls-2, .cls-3, .cls-4 {
        stroke-width: 0px;
      }

      .cls-1, .cls-3, .cls-4 {
        fill-rule: evenodd;
      }

      .cls-2, .cls-4 {
        fill: #FFFFFF;
      }

      .cls-3 {
        fill: url(#GradientFill_1);
      }
    </style>
  </defs>
  <g id="Camada_1-2" data-name="Camada 1">
    <g>
      <path class="cls-4" d="M204.56,74.01c0,7.31-1.92,15.86-11.19,15.86s-11.19-8.55-11.19-15.86c0-7.72,1.92-16.27,11.19-16.27s11.19,8.55,11.19,16.27h0ZM193.37,99.46c16.27,0,25.5-9.43,25.5-25.65s-9.23-25.65-25.5-25.65-25.5,9.43-25.5,25.65,9.23,25.65,25.5,25.65Z"/>
      <polygon class="cls-4" points="223.79 98.42 223.79 49.18 245.4 49.18 253.44 82.51 253.59 82.51 261.37 49.18 282.56 49.18 282.56 98.42 270.64 98.42 270.64 57.22 270.49 57.11 258.98 98.42 246.7 98.42 235.87 56.75 235.71 56.91 235.71 98.42 223.79 98.42"/>
      <rect class="cls-2" x="289.92" y="49.18" width="13.63" height="49.23"/>
      <path class="cls-1" d="M0,49.18C0,22.03,22.03,0,49.18,0s49.24,22.03,49.24,49.18c0,20.52-12.54,38.09-30.37,45.5l-18.87-18.87v10.05c-20.21,0-36.64-16.43-36.64-36.69S28.97,12.54,49.18,12.54s36.69,16.43,36.69,36.64c0,13.11-6.84,24.57-17.15,31.1l-19.54-19.54v-11.56l18.87,18.86c4.82-4.82,7.77-11.51,7.77-18.86,0-14.72-11.92-26.64-26.64-26.64s-26.64,11.92-26.64,26.64,11.92,26.64,26.64,26.64v-11.51l18.87,18.81.26.26c11.97-6.69,20.06-19.49,20.06-34.21,0-21.61-17.52-39.18-39.18-39.18S10,27.57,10,49.18s17.57,39.18,39.18,39.18v10.05C22.03,98.42,0,76.39,0,49.18Z"/>
      <path class="cls-4" d="M136.72,70.07v-11.35h5.34c4.35,0,8.55.62,8.55,5.65s-4.2,5.7-8.55,5.7h-5.34ZM136.72,79.61h5.13c6.94,0,7.2,2.44,7.77,8.4.31,3.47.73,7,1.5,10.42h14.77c-1.14-3.94-1.92-7.83-2.23-11.92-.88-7.67-2.54-12.08-11.25-12.28v-.26c6.84-.83,12.54-4.72,12.54-12.08,0-10.42-10.78-12.7-19.12-12.7h-22.75v49.23h13.63v-18.81Z"/>
    </g>
  </g>
</svg>